<svg width="36" height="37" viewBox="0 0 36 37" fill="none" xmlns="http://www.w3.org/2000/svg">
<path d="M0 18.5C0 8.55888 8.05888 0.5 18 0.5C27.9411 0.5 36 8.55888 36 18.5C36 28.4411 27.9411 36.5 18 36.5C8.05888 36.5 0 28.4411 0 18.5Z" fill="#424874"/>
<path d="M9.77399 30.8066C13.7695 30.8066 17.0085 25.2874 17.0085 18.4791C17.0085 11.6708 13.7695 6.15161 9.77399 6.15161C5.77849 6.15161 2.53949 11.6708 2.53949 18.4791C2.53949 25.2874 5.77849 30.8066 9.77399 30.8066Z" fill="white"/>
<path d="M26.226 30.8066C30.2215 30.8066 33.4605 25.2874 33.4605 18.4791C33.4605 11.6708 30.2215 6.15161 26.226 6.15161C22.2305 6.15161 18.9915 11.6708 18.9915 18.4791C18.9915 25.2874 22.2305 30.8066 26.226 30.8066Z" fill="white"/>
<path d="M26.226 30.8066C30.2215 30.8066 33.4605 25.2874 33.4605 18.4791C33.4605 11.6708 30.2215 6.15161 26.226 6.15161C22.2305 6.15161 18.9915 11.6708 18.9915 18.4791C18.9915 25.2874 22.2305 30.8066 26.226 30.8066Z" fill="white"/>
<path d="M23.005 23.422C25.2216 23.422 27.0185 21.6251 27.0185 19.4085C27.0185 17.1919 25.2216 15.395 23.005 15.395C20.7884 15.395 18.9915 17.1919 18.9915 19.4085C18.9915 21.6251 20.7884 23.422 23.005 23.422Z" fill="#A57939"/>
<path d="M9.77399 30.8066C13.7695 30.8066 17.0085 25.2874 17.0085 18.4791C17.0085 11.6708 13.7695 6.15161 9.77399 6.15161C5.77849 6.15161 2.53949 11.6708 2.53949 18.4791C2.53949 25.2874 5.77849 30.8066 9.77399 30.8066Z" fill="white"/>
<path d="M6.55299 23.422C8.76958 23.422 10.5665 21.6251 10.5665 19.4085C10.5665 17.1919 8.76958 15.395 6.55299 15.395C4.3364 15.395 2.53949 17.1919 2.53949 19.4085C2.53949 21.6251 4.3364 23.422 6.55299 23.422Z" fill="#A57939"/>
<path d="M9.77399 30.8066C13.7695 30.8066 17.0085 25.2874 17.0085 18.4791C17.0085 11.6708 13.7695 6.15161 9.77399 6.15161C5.77849 6.15161 2.53949 11.6708 2.53949 18.4791C2.53949 25.2874 5.77849 30.8066 9.77399 30.8066Z" stroke="black" stroke-width="0.5" stroke-miterlimit="10" stroke-linecap="round" stroke-linejoin="round"/>
<path d="M26.226 30.8066C30.2215 30.8066 33.4605 25.2874 33.4605 18.4791C33.4605 11.6708 30.2215 6.15161 26.226 6.15161C22.2305 6.15161 18.9915 11.6708 18.9915 18.4791C18.9915 25.2874 22.2305 30.8066 26.226 30.8066Z" stroke="black" stroke-width="0.5" stroke-miterlimit="10" stroke-linecap="round" stroke-linejoin="round"/>
<path d="M6.55299 21.2199C7.55345 21.2199 8.36449 20.4089 8.36449 19.4084C8.36449 18.408 7.55345 17.5969 6.55299 17.5969C5.55252 17.5969 4.74149 18.408 4.74149 19.4084C4.74149 20.4089 5.55252 21.2199 6.55299 21.2199Z" fill="black"/>
<path d="M23.005 21.2199C24.0055 21.2199 24.8165 20.4089 24.8165 19.4084C24.8165 18.408 24.0055 17.5969 23.005 17.5969C22.0045 17.5969 21.1935 18.408 21.1935 19.4084C21.1935 20.4089 22.0045 21.2199 23.005 21.2199Z" fill="black"/>
<path d="M6.55299 21.2199C7.55345 21.2199 8.36449 20.4089 8.36449 19.4084C8.36449 18.408 7.55345 17.5969 6.55299 17.5969C5.55252 17.5969 4.74149 18.408 4.74149 19.4084C4.74149 20.4089 5.55252 21.2199 6.55299 21.2199Z" stroke="black" stroke-width="0.5" stroke-miterlimit="10" stroke-linecap="round" stroke-linejoin="round"/>
<path d="M6.55299 23.422C8.76958 23.422 10.5665 21.6251 10.5665 19.4085C10.5665 17.1919 8.76958 15.395 6.55299 15.395C4.3364 15.395 2.53949 17.1919 2.53949 19.4085C2.53949 21.6251 4.3364 23.422 6.55299 23.422Z" stroke="black" stroke-width="0.5" stroke-miterlimit="10" stroke-linecap="round" stroke-linejoin="round"/>
<path d="M23.005 21.2199C24.0055 21.2199 24.8165 20.4089 24.8165 19.4084C24.8165 18.408 24.0055 17.5969 23.005 17.5969C22.0045 17.5969 21.1935 18.408 21.1935 19.4084C21.1935 20.4089 22.0045 21.2199 23.005 21.2199Z" stroke="black" stroke-width="0.5" stroke-miterlimit="10" stroke-linecap="round" stroke-linejoin="round"/>
<path d="M23.005 23.422C25.2216 23.422 27.0185 21.6251 27.0185 19.4085C27.0185 17.1919 25.2216 15.395 23.005 15.395C20.7884 15.395 18.9915 17.1919 18.9915 19.4085C18.9915 21.6251 20.7884 23.422 23.005 23.422Z" stroke="black" stroke-width="0.5" stroke-miterlimit="10" stroke-linecap="round" stroke-linejoin="round"/>
</svg>
